<svg width="30" height="30" viewBox="0 0 30 30" fill="none" xmlns="http://www.w3.org/2000/svg">
<path d="M24.8502 11.25H21.0938L15.75 4.125C15.6627 4.00857 15.5495 3.91406 15.4193 3.84897C15.2891 3.78389 15.1456 3.75 15 3.75C14.8545 3.75 14.7109 3.78389 14.5808 3.84897C14.4506 3.91406 14.3373 4.00857 14.25 4.125L8.90627 11.25H5.14983C4.6445 11.2492 4.15949 11.4489 3.80118 11.8052C3.44287 12.1616 3.24051 12.6455 3.2385 13.1508C3.23741 13.3294 3.26328 13.5072 3.31526 13.6781L6.02639 23.2371C6.20268 23.8601 6.57761 24.4085 7.09417 24.7989C7.61072 25.1893 8.24063 25.4003 8.88811 25.3998H21.1119C21.7595 25.3978 22.389 25.1864 22.9065 24.7971C23.4239 24.4079 23.8016 23.8616 23.983 23.24L26.6977 13.6682C26.7102 13.6228 26.7192 13.5766 26.7246 13.5299L26.7557 13.241C26.7592 13.2109 26.761 13.1805 26.761 13.1502C26.7588 12.6451 26.5564 12.1614 26.1983 11.8052C25.8401 11.449 25.3553 11.2494 24.8502 11.25ZM15 6.2502L18.75 11.25H11.25L15 6.2502ZM15 20.6057C14.5636 20.6036 14.1375 20.4723 13.7757 20.2283C13.4138 19.9843 13.1323 19.6386 12.9667 19.2347C12.8011 18.8309 12.7589 18.3871 12.8453 17.9593C12.9317 17.5315 13.143 17.1389 13.4523 16.831C13.7617 16.5231 14.1553 16.3138 14.5835 16.2294C15.0117 16.145 15.4553 16.1894 15.8583 16.3569C16.2614 16.5244 16.6057 16.8075 16.848 17.1705C17.0903 17.5336 17.2195 17.9602 17.2196 18.3967C17.2163 18.9831 16.981 19.5445 16.5651 19.958C16.1492 20.3715 15.5865 20.6035 15 20.6033V20.6057Z" fill="white"/>
</svg>
